<svg width="60" height="51" viewBox="0 0 60 51" fill="none" xmlns="http://www.w3.org/2000/svg">
<path d="M59.8962 28.927C59.8962 41.1176 46.5112 51 30 51C13.4888 51 0.103793 41.1176 0.103793 28.927C-1.39103 2.91242 13.4888 17.8905 30 17.8905C46.5112 17.8905 61.391 3.70074 59.8962 28.927Z" fill="url(#paint0_linear_6_48)"/>
<path d="M59.3971 28.8975L59.3962 28.9122V28.927C59.3962 34.8263 56.1587 40.208 50.8428 44.1328C45.5271 48.0575 38.1597 50.5 30 50.5C21.8403 50.5 14.4729 48.0575 9.15717 44.1328C3.84131 40.208 0.603793 34.8263 0.603793 28.927V28.9127L0.602969 28.8983C0.229895 22.4057 0.893252 18.6071 2.24368 16.4972C2.90668 15.4614 3.73864 14.8278 4.72226 14.4732C5.71792 14.1142 6.89636 14.0317 8.25578 14.1514C10.4722 14.3465 13.0502 15.063 15.9293 15.8632C16.6104 16.0525 17.3084 16.2465 18.0224 16.4394C21.7226 17.4389 25.8022 18.3905 30 18.3905C34.194 18.3905 38.2709 17.4898 41.97 16.5522C42.6238 16.3865 43.2643 16.2201 43.8908 16.0574C46.838 15.2919 49.4756 14.6068 51.7355 14.4477C54.445 14.2569 56.4565 14.8324 57.7584 16.8329C59.1069 18.9053 59.77 22.6043 59.3971 28.8975Z" stroke="#242D26" stroke-opacity="0.54"/>
<ellipse cx="30" cy="20.25" rx="30" ry="20.25" fill="url(#paint1_radial_6_48)"/>
<path d="M59.5 20.25C59.5 25.6256 56.2722 30.5508 50.9335 34.1545C45.5977 37.7561 38.1981 40 30 40C21.8019 40 14.4023 37.7561 9.06653 34.1545C3.7278 30.5508 0.5 25.6256 0.5 20.25C0.5 14.8744 3.7278 9.94916 9.06653 6.34551C14.4023 2.74385 21.8019 0.5 30 0.5C38.1981 0.5 45.5977 2.74385 50.9335 6.34551C56.2722 9.94916 59.5 14.8744 59.5 20.25Z" stroke="#242D26" stroke-opacity="0.54"/>
<defs>
<linearGradient id="paint0_linear_6_48" x1="0" y1="51" x2="60" y2="51" gradientUnits="userSpaceOnUse">
<stop stop-color="#522569"/>
<stop offset="0.328125" stop-color="#8E1B8D"/>
<stop offset="0.651042" stop-color="#8E1B8D"/>
<stop offset="1" stop-color="#522569"/>
</linearGradient>
<radialGradient id="paint1_radial_6_48" cx="0" cy="0" r="1" gradientUnits="userSpaceOnUse" gradientTransform="translate(30 20.25) rotate(90) scale(20.25 30)">
<stop stop-color="#8E1B8D"/>
<stop offset="1" stop-color="#80167F"/>
</radialGradient>
</defs>
</svg>
