<svg width="55" height="55" viewBox="0 0 55 55" fill="none" xmlns="http://www.w3.org/2000/svg">
<path d="M2.25586 43.2667V11.8919L27.5 0L52.7441 11.8919V43.2667L27.5 55L2.25586 43.2667Z" fill="#3EAE4D"/>
<path d="M15.6204 18.192L2.25586 11.8919V43.2852L27.5 55V41.6216L15.6204 36.0273V18.192Z" fill="#1B3B20"/>
<path d="M39.3796 18.192L52.7442 11.8919V43.2852L27.5 55V41.6216L39.3796 36.0273V18.192Z" fill="#267633"/>
<path d="M15.6204 36.0647L27.5 41.6216V12.6351L15.6204 18.2294V36.0647Z" fill="#267633"/>
<path d="M39.3796 36.0647L27.5 41.6216V12.6351L39.3796 18.2294V36.0647Z" fill="#165D25"/>
<path d="M27.5 41.6187L15.6204 36.0643L27.5 30.4701L39.3796 36.0643L27.5 41.6187Z" fill="#3EAE4D"/>
</svg>
